<?xml version="1.0" encoding="UTF-8" standalone="no"?>
<!-- Created with Inkscape (http://www.inkscape.org/) -->

<svg
   width="124mm"
   height="95mm"
   viewBox="0 0 124 95"
   version="1.1"
   id="svg5"
   xml:space="preserve"
   inkscape:version="1.2.2 (b0a84865, 2022-12-01)"
   sodipodi:docname="geoCrypt.svg"
   xmlns:inkscape="http://www.inkscape.org/namespaces/inkscape"
   xmlns:sodipodi="http://sodipodi.sourceforge.net/DTD/sodipodi-0.dtd"
   xmlns="http://www.w3.org/2000/svg"
   xmlns:svg="http://www.w3.org/2000/svg"><sodipodi:namedview
     id="namedview7"
     pagecolor="#ffffff"
     bordercolor="#000000"
     borderopacity="0.25"
     inkscape:showpageshadow="2"
     inkscape:pageopacity="0.0"
     inkscape:pagecheckerboard="0"
     inkscape:deskcolor="#d1d1d1"
     inkscape:document-units="mm"
     showgrid="false"
     inkscape:zoom="1.1893044"
     inkscape:cx="353.56802"
     inkscape:cy="432.60582"
     inkscape:window-width="1942"
     inkscape:window-height="1275"
     inkscape:window-x="2070"
     inkscape:window-y="25"
     inkscape:window-maximized="0"
     inkscape:current-layer="layer1" /><defs
     id="defs2"><rect
       x="-158.91643"
       y="602.87341"
       width="279.15479"
       height="247.20332"
       id="rect1032" /></defs><g
     inkscape:label="Layer 1"
     inkscape:groupmode="layer"
     id="layer1"><path
       id="path302-1"
       style="fill:#aa87de;fill-opacity:1;stroke-width:0.264583"
       d="m 47.014153,0.00406954 c -0.501047,0.006 -1.004824,0.0202 -1.511531,0.0413 C 31.70265,0.62111954 19.320826,6.8109695 10.447479,17.56936 3.5916559,28.55388 0.01814888,37.60241 7.2881746e-5,47.58412 -0.00612712,54.16929 0.38099588,56.95166 2.0237219,62.12432 c 1.649542,5.19422 5.336567,11.90325 8.7576051,15.93598 3.299883,3.58442 4.72677,5.54337 10.377659,9.28569 5.95783,3.9456 13.489106,6.69696 20.771804,7.58816 2.699385,0.33034 10.469451,0.12908 13.249791,-0.34313 12.96336,-2.2016 24.24136,-9.46946 31.73656,-20.45198 12.70857,-18.53695 10.2874,-51.20113 -15.08022,-67.5560905 l -3.50986,-1.71876 C 61.429451,1.4862595 54.529731,-0.09078046 47.014173,0.00402954 Z M 46.243656,7.4878495 c 1.587071,0.0333 2.830825,0.30576 2.830825,0.7984 0,0.37466 -0.325787,0.65561 -2.091858,1.8029905 -0.656567,0.42665 -0.997174,0.91623 -1.253664,1.80351 -0.193627,0.6698 -0.949004,2.03648 -1.678441,3.03702 -1.133231,1.55441 -1.326001,1.99528 -1.326001,3.02876 0,0.66521 -0.14267,1.35241 -0.3173,1.52704 -0.681094,0.6811 -1.534341,0.31601 -3.451959,-1.4764 -1.055464,-0.98653 -2.395525,-2.19623 -2.977582,-2.68821 -1.211264,-1.02377 -1.979821,-2.06953 -1.982821,-2.69699 -10e-4,-0.2769 0.523367,-0.64558 1.458824,-1.02526 0.803224,-0.32602 1.547381,-0.73775 1.653641,-0.91519 0.416847,-0.6961705 2.566145,-1.9915505 4.246743,-2.5595305 0.47803,-0.16155 1.023727,-0.29179 1.599031,-0.39152 1.076344,-0.18657 2.256298,-0.26635 3.290562,-0.24462 z M 67.227361,11.86536 c 0.78221,0 3.51462,1.63988 5.01675,3.01067 l 1.48518,1.35496 -0.58549,1.55597 c -0.6981,1.85561 -2.10866,3.50537 -3.56413,4.16822 -2.25831,1.02857 -4.8972,0.0953 -4.8922,-1.73012 0.002,-0.70973 0.21359,-0.95503 1.5875,-1.8402 0.87185,-0.56171 1.5833,-1.09753 1.5813,-1.19063 -0.002,-0.0931 -0.24001,-0.92394 -0.52917,-1.8464 -0.65624,-2.09338 -0.69649,-3.48247 -0.0997,-3.48247 z m -38.469885,0.30437 c 0.0358,-0.005 0.059,-0.002 0.0687,0.009 0.21109,0.24883 0.953083,4.25282 0.8139,4.39198 -0.23078,0.23082 -3.26006,0.20258 -4.37803,-0.0408 -0.89139,-0.19411 -0.95751,-0.15428 -1.76216,1.07229 -0.63573,0.96907 -0.8773,1.69385 -1.00924,3.02514 -0.16591,1.67386 -0.14701,1.75774 0.43873,1.91461 0.33692,0.0903 0.99984,0.16543 1.47278,0.16743 0.9838,0.004 1.05477,-0.25877 0.45682,-1.68982 -0.31812,-0.7615 -0.33202,-0.98994 -0.0662,-1.08624 2.12855,-0.77043 2.92885,-0.92394 4.80177,-0.92294 3.670045,0.002 4.889616,0.67663 5.823903,3.21841 0.249717,0.67941 0.745464,1.42591 1.101734,1.65933 0.919544,0.60251 0.809704,1.25033 -0.484197,2.84944 -0.622757,0.76963 -1.408304,1.79119 -1.745621,2.27015 -0.506347,0.71899 -0.681257,0.81474 -1.003554,0.54725 -0.705637,-0.58563 -1.383124,-2.19363 -1.121374,-2.66134 0.573377,-1.02455 -0.762197,-1.88608 -2.028808,-1.30896 -1.246623,0.56801 -2.302623,3.21376 -1.282603,3.21376 0.22948,0 0.77494,0.3574 1.211813,0.79426 0.930314,0.93033 0.890104,1.43467 -0.32918,4.1522 -0.765833,1.70691 -3.181403,4.57854 -3.851453,4.57854 -0.42566,0 -0.4173,-0.0691 -0.11782,0.97513 0.31604,1.10196 -0.18987,4.8457 -0.65474,4.8457 -0.50498,0 -1.71351,-1.55599 -2.38693,-3.0732 -0.33038,-0.74437 -0.76346,-1.41591 -0.96273,-1.49241 -0.19927,-0.0765 -0.83298,0.0364 -1.40819,0.25063 -0.57521,0.21424 -1.31475,0.45313 -1.64331,0.53123 -0.76483,0.18179 -2.123913,-0.37768 -2.464963,-1.01492 -0.14508,-0.27109 -0.472841,-0.493 -0.728637,-0.493 -0.65098,0 -5.035717,2.94318 -5.219837,3.50366 -0.23775,0.72372 0.132341,1.06111 0.972551,0.88729 0.419316,-0.0867 1.124026,-0.23134 1.566312,-0.32143 0.889266,-0.18119 1.841748,0.44186 1.841748,1.20458 0,0.67866 -0.743,1.56093 -1.391646,1.65313 -0.793616,0.11275 -0.653693,0.80785 0.438733,2.18436 0.469126,0.59112 1.066684,1.41773 1.328084,1.83658 0.45851,0.73468 0.532725,0.75654 2.100647,0.62322 0.893908,-0.076 2.220528,-0.39933 2.948138,-0.7183 1.45305,-0.63703 3.6724,-0.96359 4.73408,-0.69712 0.38031,0.0954 0.85962,0.51785 1.08727,0.95808 0.56674,1.09596 1.98311,1.73786 5.891624,2.67064 6.706231,1.60048 7.481715,2.49406 5.542787,6.38772 -0.526017,1.05616 -1.451801,3.05139 -2.057228,4.43384 -1.448581,3.30764 -2.116288,4.41384 -3.433362,5.68854 -1.624261,1.57217 -1.843288,2.15405 -1.843288,4.89014 0,1.72844 0.15346,2.85815 0.546727,4.0256 l 0.546737,1.62264 -0.676437,2.1394 h 5.1e-4 c -0.371917,1.17649 -0.9454,2.71305 -1.27434,3.41478 l -0.59789,1.27589 -0.92605,-0.61443 c -1.22299,-0.81146 -3.46687,-5.28528 -3.62561,-7.22902 -0.17317,-2.12034 -0.28716,-2.41656 -1.44539,-3.75481 -1.21677,-1.40574 -2.33075,-3.57656 -2.33475,-4.54855 -0.003,-0.76593 -1.58857,-2.33138 -2.906794,-2.87063 -1.791526,-0.73285 -4.194154,-2.27441 -4.46226,-2.86288 -0.14866,-0.32612 -0.528897,-1.79918 -0.844393,-3.27266 -0.51993,-2.42842 -0.543662,-2.88906 -0.255282,-4.92063 0.19907,-1.40237 0.506035,-2.48015 0.820105,-2.87941 0.630056,-0.80149 0.631802,-1.33329 0.0083,-2.37609 -0.271493,-0.45374 -0.637967,-1.41904 -0.813903,-2.14509 -0.20943,-0.86423 -0.733271,-1.82226 -1.517221,-2.7745 -0.6586061,-0.80001 -1.4333521,-1.91751 -1.7218581,-2.48306 -0.51467,-1.00881 -0.684885,-2.81302 -0.361219,-3.83284 0.09003,-0.28364 0.03737,-1.30813 -0.117305,-2.27634 -0.27891,-1.74593 -0.272254,-1.78036 0.788582,-4.17029 3.1906881,-7.1883 8.7806681,-14.26546 14.4228881,-18.25987 1.6286,-1.15296 4.9433,-3.00036 5.47977,-3.07526 z m 53.501015,13.81983 c 0.16216,-0.0874 0.68745,0.91986 1.56683,3.00809 2.27226,5.39617 3.8106,10.70319 4.05711,13.99811 0.0885,1.18722 0.0854,2.35232 -0.004,2.58899 -0.151,0.39351 -0.23399,0.39506 -0.9679,0.0155 -0.61222,-0.31657 -1.45868,-0.39723 -3.56981,-0.34003 l -2.76779,0.0749 1.91151,2.28823 c 2.0107,2.40629 3.59436,3.66489 4.61057,3.66489 0.72046,0 0.72504,0.0591 0.21033,3.01067 -1.43468,8.22693 -5.92245,16.32116 -12.88965,23.24924 -1.42676,1.41857 -2.71288,2.57968 -2.85823,2.57968 -0.14535,0 -0.52558,-0.538 -0.84491,-1.19527 l -0.58084,-1.19476 0.46922,-2.70785 c 0.65057,-3.75461 0.87739,-8.91433 0.43822,-9.97458 -0.71746,-1.73211 -2.33362,-2.27404 -4.43022,-1.4857 -3.04963,1.14661 -6.72792,2.02361 -9.06714,2.16163 -2.23666,0.13196 -2.6087,0.0882 -3.37602,-0.39791 -2.35634,-1.49274 -3.38605,-6.02681 -2.96726,-13.06226 0.22544,-3.78713 0.8046,-5.89077 2.00969,-7.29878 2.22482,-2.59918 6.00307,-1.74486 11.28044,2.55075 2.46515,2.0065 4.05494,2.76779 5.7795,2.76779 2.34301,0 3.88038,-1.50546 4.73872,-4.64106 l 0.43202,-1.57768 3.0179,-1.08934 3.01739,-1.08882 0.30386,-1.36736 c 0.24644,-1.10973 0.22514,-1.74276 -0.11214,-3.3569 l -0.41548,-1.98903 -4.46329,-1.84433 c -3.57709,-1.47782 -4.49351,-1.76651 -4.61316,-1.45469 -0.2777,0.72363 0.19735,3.36201 0.8785,4.8798 l 0.67696,1.50895 -0.52813,1.19476 c -0.87514,1.97836 -1.18499,2.00001 -4.53616,0.31936 -3.48673,-1.74871 -4.70546,-1.88495 -6.7846,-0.75861 -1.59847,0.86595 -4.83518,1.13161 -6.71999,0.55191 -1.02438,-0.31507 -1.18051,-0.45594 -1.11621,-1.00873 0.13852,-1.19075 1.35093,-2.594 3.3321,-3.85713 l 1.9544,-1.24591 -0.0346,-2.54145 c -0.0412,-3.02256 0.36746,-3.97805 1.70171,-3.97805 0.439,0 1.28323,-0.24778 1.87636,-0.55036 1.34995,-0.68869 1.84186,-0.56191 3.66334,0.94465 0.80036,0.66192 1.9017,1.32504 2.4474,1.47329 1.40895,0.38275 3.01127,-0.10238 4.2323,-1.28106 1.45561,-1.40513 2.54741,-1.34469 4.00079,0.22066 1.05541,1.13673 1.16864,1.18701 3.27783,1.45469 l 2.18488,0.27699 -0.13384,-0.8723 c -0.0738,-0.47989 -0.2017,-1.30107 -0.2837,-1.82469 -0.0773,-0.49315 -0.0744,-0.75922 -0.005,-0.79892 z"
       sodipodi:nodetypes="sscccccsccccsssscsssssscscsssccccccsscccccccsscccccscsssssssssssscsssssscscssscssscscsccccccssccsccsccsscsscsccccccccccsscsccsscscsccsccccccccsccccssscccsccssscccccc" /><path
       id="rect689"
       style="fill:#00ff00;fill-opacity:1;stroke-width:0.379542"
       d="m 62.150411,33.37496 c -8.2716,-5e-5 -14.679107,6.33371 -14.678709,14.14769 1.33e-4,7.81362 6.407489,14.14866 14.678709,14.14859 h 29.95225 31.450589 V 33.37496 H 92.102661 Z m -0.0501,3.38652 h 30.00224 v 21.52324 l -29.92775,-0.0687 c -7.48212,2e-4 -10.71372,-4.74913 -10.71383,-10.6925 -5.1e-4,-5.94373 3.15679,-10.76225 10.63934,-10.76207 z" /><g
       aria-label="G"
       transform="matrix(0.50173574,0,0,0.46249641,102.24678,-250.02015)"
       id="text1030"
       style="font-size:74.6667px;font-family:'DIN Alternate';-inkscape-font-specification:'DIN Alternate';white-space:pre;shape-inside:url(#rect1032);fill:#00ff00"><path
         d="m -136.05663,649.5465 h 10.82813 v 2.77083 q -0.0729,4.9948 -3.13542,8.0573 -3.0625,3.20833 -7.76563,3.20833 -2.84375,0 -4.88542,-1.20312 -2.07812,-1.02084 -3.35416,-2.66146 -1.56771,-1.71355 -2.07813,-4.48438 -0.58333,-2.77084 -0.58333,-10.60938 0,-7.83855 0.58333,-10.6823 0.51042,-2.69792 2.07813,-4.41146 1.27604,-1.64062 3.35416,-2.73437 2.04167,-1.0573 4.88542,-1.13021 3.86459,0.0729 6.56251,2.22396 2.58854,2.26041 3.57292,5.46875 h 8.53125 q -1.27604,-6.67188 -6.125,-11.19271 -4.84896,-4.48438 -12.54168,-4.5573 -6.27083,0.0729 -10.46354,2.98959 -4.26563,2.88021 -6.19792,6.5625 -1.20313,1.93229 -1.78646,5.06771 -0.54688,3.13542 -0.54688,12.39584 0,9.11459 0.54688,12.32292 0.29166,1.71354 0.72917,2.84375 0.47395,1.09375 1.05729,2.29688 1.93229,3.68229 6.19792,6.48959 4.19271,2.91666 10.46354,3.0625 8.13022,-0.14584 13.48959,-5.50521 5.32292,-5.39584 5.46876,-13.38022 V 641.9267 h -18.88543 z"
         id="path1245" /></g></g></svg>
