<?xml version="1.0" encoding="UTF-8" standalone="no"?>
<!-- Created with Inkscape (http://www.inkscape.org/) -->

<svg
   width="512mm"
   height="512mm"
   viewBox="0 0 512 512"
   version="1.1"
   id="svg5"
   xml:space="preserve"
   inkscape:version="1.2.2 (b0a84865, 2022-12-01)"
   sodipodi:docname="geoCrypt.svg"
   inkscape:export-filename="geoCrypt.png"
   inkscape:export-xdpi="25.4"
   inkscape:export-ydpi="25.4"
   xmlns:inkscape="http://www.inkscape.org/namespaces/inkscape"
   xmlns:sodipodi="http://sodipodi.sourceforge.net/DTD/sodipodi-0.dtd"
   xmlns="http://www.w3.org/2000/svg"
   xmlns:svg="http://www.w3.org/2000/svg"><sodipodi:namedview
     id="namedview7"
     pagecolor="#ffffff"
     bordercolor="#000000"
     borderopacity="0.25"
     inkscape:showpageshadow="2"
     inkscape:pageopacity="0.0"
     inkscape:pagecheckerboard="0"
     inkscape:deskcolor="#d1d1d1"
     inkscape:document-units="mm"
     showgrid="false"
     inkscape:zoom="0.4204826"
     inkscape:cx="878.75218"
     inkscape:cy="871.61752"
     inkscape:window-width="1512"
     inkscape:window-height="827"
     inkscape:window-x="1889"
     inkscape:window-y="275"
     inkscape:window-maximized="0"
     inkscape:current-layer="layer1" /><defs
     id="defs2"><rect
       x="-158.91643"
       y="602.87341"
       width="279.15479"
       height="247.20332"
       id="rect1032" /></defs><g
     inkscape:label="Layer 1"
     inkscape:groupmode="layer"
     id="layer1"><path
       id="path302-1"
       style="fill:#aa87de;fill-opacity:1;stroke-width:1.09633"
       d="M 197.54782,55.046236 C 128.12696,55.17264 59.130818,97.026306 31.326938,161.4076 8.252052,206.31632 -0.54049336,259.19633 12.332333,308.49303 c 17.009738,67.45235 70.691356,125.6041 138.830477,142.79542 66.69806,18.46091 142.10928,-4.40693 187.86968,-56.27038 57.03583,-60.19679 65.11448,-155.45633 30.41006,-228.86764 C 347.9477,118.97911 307.74349,79.770098 257.64274,64.499205 238.34793,57.970019 217.94778,54.410396 197.54782,55.046236 Z m -3.12822,31.648883 c 23.59326,1.521 -11.02468,20.848381 -10.29286,33.556061 -1.52383,11.87067 -10.49326,24.34737 -19.81274,10.07756 -14.88527,-7.17316 -25.55908,-25.54811 -4.61689,-32.714839 9.95684,-7.276139 22.24238,-12.010698 34.72249,-10.918782 z m 85.19367,18.512471 c 20.07859,4.06075 35.76915,28.36969 12.18871,40.76047 -14.49611,12.11027 -31.44971,-7.84207 -12.36319,-17.21803 7.72032,-7.58378 -6.51051,-16.75356 0.17448,-23.54244 z m -156.18739,1.28718 c 10.07969,14.41316 -4.12028,24.32973 -17.7679,18.95471 -14.83569,4.05943 -4.54602,39.28779 2.45897,19.05407 8.03482,-19.41074 42.6476,-9.01831 46.68096,10.1794 4.83558,11.45931 -14.52278,37.6246 -17.23057,14.66206 -8.94191,-17.8422 -21.67181,9.81485 -7.07031,16.34464 2.26261,18.05208 -24.69859,27.74307 -20.44615,47.45464 -3.6958,22.15395 -12.437996,-23.57885 -24.451218,-8.33821 -13.634065,-4.09829 -27.42591,-6.18116 -35.979391,8.40474 -0.124499,9.33555 25.216375,-0.18559 12.645866,14.38748 -9.785531,16.63673 18.830276,27.24007 31.151574,15.85322 19.729009,-5.17221 32.241879,19.13079 53.676989,16.81284 28.23359,8.31443 3.6436,37.58529 -2.45318,54.36345 -13.51696,14.76119 -21.83599,34.97736 -12.48382,54.75891 2.20763,19.63247 -15.69785,42.80715 -23.10434,13.43176 -4.77221,-20.95635 -14.749246,-39.99833 -25.935249,-58.34979 -21.147316,-6.4665 -35.273034,-29.96121 -27.44652,-51.4161 10.003826,-24.38692 -10.929441,-42.12962 -16.357347,-63.62219 -4.5137,-32.37183 16.998878,-60.49558 35.435806,-84.76249 13.348064,-15.885 29.68384,-29.57348 48.67583,-38.17314 z m 240.04678,130.36316 c 10.4029,24.09012 -40.98599,-2.90467 -22.85463,18.62404 13.59918,11.19062 29.64024,23.81933 17.40778,43.57291 -10.30248,36.73334 -32.10404,69.82742 -60.83244,94.83438 -13.07412,-17.12961 3.83124,-40.04201 -1.39796,-59.58661 -10.29696,-25.8791 -40.01639,3.4133 -59.69535,-1.04062 -25.07576,-2.7362 -21.6043,-35.99219 -21.67931,-54.73016 -3.27818,-20.72273 12.3417,-51.45139 36.50078,-35.1721 15.16066,8.73376 39.67442,38.43165 55.22162,16.04785 0.95793,-20.28248 23.27407,-20.19115 32.34328,-31.733 7.40823,-22.01409 -12.66087,-30.43982 -29.66003,-35.66237 -25.13863,-9.35269 13.36262,40.41072 -16.96607,34.7144 -14.06197,-9.46619 -29.43225,-13.42346 -43.78021,-2.78909 -18.04141,6.40322 -29.29081,-15.80058 -8.6726,-21.57377 16.12165,-8.4023 -0.12183,-41.88251 28.47624,-35.59452 16.04635,10.12868 46.44194,-3.58519 63.25364,-13.61973 12.67049,10.68619 19.59351,22.05225 23.6828,44.34152 4.53481,12.69267 6.74857,26.069 8.65246,39.36687 z"
       sodipodi:nodetypes="sscccccsscccscsscscsssscscsssccccccssscccccsscccccscsss" /><path
       id="rect689"
       style="fill:#00ff00;fill-opacity:1;stroke-width:1.57268"
       d="m 259.0009,196.1716 c -33.58261,-2.1e-4 -59.59705,26.78524 -59.59542,59.83052 5.3e-4,33.04378 26.01434,59.83463 59.59542,59.83433 H 380.60675 508.29581 V 196.1716 H 380.60675 Z m -0.20341,14.32158 h 121.80882 v 91.02169 l -121.50639,-0.29053 c -30.37733,8.5e-4 -43.49759,-20.08405 -43.49805,-45.21853 -0.002,-25.13602 12.81654,-45.51352 43.19562,-45.51275 z" /><g
       aria-label="G"
       transform="matrix(2.0370424,0,0,1.9558955,421.79175,-1002.3052)"
       id="text1030"
       style="font-size:74.6667px;font-family:'DIN Alternate';-inkscape-font-specification:'DIN Alternate';white-space:pre;shape-inside:url(#rect1032);fill:#00ff00"><path
         d="m -136.05663,649.5465 h 10.82813 v 2.77083 q -0.0729,4.9948 -3.13542,8.0573 -3.0625,3.20833 -7.76563,3.20833 -2.84375,0 -4.88542,-1.20312 -2.07812,-1.02084 -3.35416,-2.66146 -1.56771,-1.71355 -2.07813,-4.48438 -0.58333,-2.77084 -0.58333,-10.60938 0,-7.83855 0.58333,-10.6823 0.51042,-2.69792 2.07813,-4.41146 1.27604,-1.64062 3.35416,-2.73437 2.04167,-1.0573 4.88542,-1.13021 3.86459,0.0729 6.56251,2.22396 2.58854,2.26041 3.57292,5.46875 h 8.53125 q -1.27604,-6.67188 -6.125,-11.19271 -4.84896,-4.48438 -12.54168,-4.5573 -6.27083,0.0729 -10.46354,2.98959 -4.26563,2.88021 -6.19792,6.5625 -1.20313,1.93229 -1.78646,5.06771 -0.54688,3.13542 -0.54688,12.39584 0,9.11459 0.54688,12.32292 0.29166,1.71354 0.72917,2.84375 0.47395,1.09375 1.05729,2.29688 1.93229,3.68229 6.19792,6.48959 4.19271,2.91666 10.46354,3.0625 8.13022,-0.14584 13.48959,-5.50521 5.32292,-5.39584 5.46876,-13.38022 V 641.9267 h -18.88543 z"
         id="path1245" /></g></g></svg>
