<?xml version="1.0" encoding="UTF-8" standalone="no"?>
<!-- Created with Inkscape (http://www.inkscape.org/) -->

<svg
   width="38mm"
   height="38mm"
   viewBox="0 0 38 38"
   version="1.1"
   id="svg5"
   xml:space="preserve"
   inkscape:version="1.2.2 (b0a84865, 2022-12-01)"
   sodipodi:docname="edisys.svg"
   xmlns:inkscape="http://www.inkscape.org/namespaces/inkscape"
   xmlns:sodipodi="http://sodipodi.sourceforge.net/DTD/sodipodi-0.dtd"
   xmlns="http://www.w3.org/2000/svg"
   xmlns:svg="http://www.w3.org/2000/svg"><sodipodi:namedview
     id="namedview7"
     pagecolor="#ffffff"
     bordercolor="#000000"
     borderopacity="0.25"
     inkscape:showpageshadow="2"
     inkscape:pageopacity="0.0"
     inkscape:pagecheckerboard="0"
     inkscape:deskcolor="#d1d1d1"
     inkscape:document-units="mm"
     showgrid="false"
     inkscape:zoom="3.3638608"
     inkscape:cx="92.899206"
     inkscape:cy="125.30245"
     inkscape:window-width="1512"
     inkscape:window-height="827"
     inkscape:window-x="0"
     inkscape:window-y="38"
     inkscape:window-maximized="0"
     inkscape:current-layer="g310" /><defs
     id="defs2"><rect
       x="-158.91643"
       y="602.87341"
       width="279.15479"
       height="247.20332"
       id="rect1032" /></defs><g
     inkscape:label="Layer 1"
     inkscape:groupmode="layer"
     id="layer1"><g
       id="g310"
       transform="translate(-4.8943179,4.4493794)"><path
         id="path312"
         style="fill:#aa87de;fill-opacity:1;stroke-width:0.183455"
         d="m 24.36238,-4.1459539 c -0.430208,-0.295693 -0.753054,-0.361084 -1.267469,-0.257317 L 5.1927394,14.033095 c -0.167782,0.25618 -0.302115,0.67731 -0.298344,0.9357 0.0038,0.25838 0.144452,0.67722 0.312459,0.93099 0.168058,0.2537 4.173461,4.23196 8.9010216,8.84066 l 8.595609,8.37943 c 0.653404,0.40583 1.024419,0.47033 1.680481,0.17593 4.611983,-4.59529 17.74774,-18.78255 17.74774,-18.78255 0.371727,-0.73586 0.300342,-1.08881 -0.180923,-1.56388 L 33.445204,4.6000151 c -4.678126,-4.59205196 -8.765317,-8.527745 -9.082824,-8.745969 z m 4.706562,7.573661 -11.120991,0.135595 5.404236,-5.672811 z m 11.586112,10.5456879 -5.519421,5.78515 -0.302045,-1.77869 -17.153281,0.52432 -0.145802,6.38359 -8.3590116,-7.93496 15.2182156,-0.44948 -0.101629,-4.28139 -14.5468886,0.045 7.3016396,-7.6826999 0.573971,6.1918849 17.106547,-0.363413 -0.270815,-1.9108139 z m -10.973272,11.33881 -5.678885,5.70085 -5.924644,-5.64276 z"
         sodipodi:nodetypes="sccssccccccscccccccccccccccccccccc" /><text
         xml:space="preserve"
         style="font-size:6.33008px;font-family:'DIN Alternate';-inkscape-font-specification:'DIN Alternate';fill:#00ff00;stroke-width:0.0847775"
         x="-1.9237988"
         y="44.937359"
         id="text498"
         transform="matrix(0.69466539,-0.74783295,0.70957067,0.67566296,0,0)"><tspan
           sodipodi:role="line"
           id="tspan496"
           style="stroke-width:0.0847775"
           x="-1.9237988"
           y="44.937359">Edisys</tspan></text></g><path
       style="fill:#000000;stroke-width:0.264583"
       id="path308"
       d="" /></g></svg>
