<?xml version="1.0" encoding="UTF-8" standalone="no"?>
<!-- Created with Inkscape (http://www.inkscape.org/) -->

<svg
   width="512mm"
   height="512mm"
   viewBox="0 0 512 512"
   version="1.1"
   id="svg5"
   xml:space="preserve"
   inkscape:version="1.2.2 (b0a84865, 2022-12-01)"
   sodipodi:docname="geoCrypt.svg"
   inkscape:export-filename="geoCrypt.png"
   inkscape:export-xdpi="25.4"
   inkscape:export-ydpi="25.4"
   xmlns:inkscape="http://www.inkscape.org/namespaces/inkscape"
   xmlns:sodipodi="http://sodipodi.sourceforge.net/DTD/sodipodi-0.dtd"
   xmlns="http://www.w3.org/2000/svg"
   xmlns:svg="http://www.w3.org/2000/svg"><sodipodi:namedview
     id="namedview7"
     pagecolor="#ffffff"
     bordercolor="#000000"
     borderopacity="0.25"
     inkscape:showpageshadow="2"
     inkscape:pageopacity="0.0"
     inkscape:pagecheckerboard="0"
     inkscape:deskcolor="#d1d1d1"
     inkscape:document-units="mm"
     showgrid="false"
     inkscape:zoom="0.10512065"
     inkscape:cx="-166.47538"
     inkscape:cy="461.37462"
     inkscape:window-width="1512"
     inkscape:window-height="831"
     inkscape:window-x="0"
     inkscape:window-y="38"
     inkscape:window-maximized="0"
     inkscape:current-layer="layer1" /><defs
     id="defs2"><rect
       x="-158.91643"
       y="602.87341"
       width="279.15479"
       height="247.20332"
       id="rect1032" /></defs><g
     inkscape:label="Layer 1"
     inkscape:groupmode="layer"
     id="layer1"><path
       id="path302-1"
       style="fill:#aa87de;fill-opacity:1;stroke-width:1.09633"
       d="m 201.25201,55.046236 c -2.03425,0.02535 -4.07959,0.08539 -6.13679,0.174662 -56.02779,2.434839 -106.297863,28.611692 -142.32358,74.108882 -27.834565,46.45349 -42.342983,84.71969 -42.416346,126.9323 -0.02436,27.84866 1.546531,39.61529 8.216,61.49045 6.697117,21.96634 21.666384,50.3388 35.555773,67.3932 13.397482,15.15849 19.190642,23.44289 42.133199,39.26914 24.188734,16.68593 54.765664,28.32143 84.333324,32.09031 10.95949,1.397 42.5059,0.54587 53.79406,-1.4511 52.63111,-9.31056 98.41969,-40.04631 128.85013,-86.49134 51.59667,-78.3927 41.76675,-216.52938 -61.22555,-285.69444 l -14.25,-7.268636 C 259.778,61.31441 231.7652,54.645119 201.2521,55.046073 Z m -3.12822,31.648883 c 6.44349,0.140822 11.49315,1.293054 11.49315,3.376422 0,1.584442 -1.3227,2.772577 -8.49293,7.624839 -2.66567,1.804307 -4.04854,3.87474 -5.08989,7.62704 -0.7861,2.83258 -3.85293,8.61226 -6.81446,12.84354 -4.6009,6.5736 -5.38354,8.43803 -5.38354,12.80862 0,2.81317 -0.57924,5.71933 -1.28824,6.45784 -2.76522,2.88037 -6.2294,1.33641 -14.01492,-6.24368 -4.28516,-4.17204 -9.72579,-9.28786 -12.08895,-11.36844 -4.9177,-4.32952 -8.03805,-8.75203 -8.05023,-11.40556 -0.004,-1.17101 2.12488,-2.73016 5.92279,-4.33582 3.26111,-1.37874 6.28236,-3.11994 6.71377,-3.87033 1.69241,-2.944099 10.41854,-8.422259 17.24176,-10.824242 1.94081,-0.683195 4.1563,-1.233983 6.49205,-1.655736 4.36994,-0.789002 9.16056,-1.126392 13.35964,-1.034493 z m 85.19367,18.512471 c 3.17577,0 14.26933,6.93503 20.36796,12.73211 l 6.02981,5.73012 -2.37708,6.58018 c -2.83428,7.84738 -8.56114,14.8242 -14.47034,17.6274 -9.16871,4.34981 -19.88258,0.40301 -19.86228,-7.31667 0.008,-3.00146 0.86717,-4.03882 6.44523,-7.7822 3.53971,-2.37547 6.42818,-4.64145 6.42007,-5.03518 -0.008,-0.39371 -0.97444,-3.90733 -2.14843,-7.80842 -2.66432,-8.85289 -2.82774,-14.72734 -0.40477,-14.72734 z m -156.18739,1.28718 c 0.14535,-0.0211 0.23954,-0.009 0.27892,0.0381 0.85702,1.05229 3.8695,17.98516 3.30442,18.57366 -0.93695,0.97613 -13.23581,0.85671 -17.77475,-0.17254 -3.61904,-0.8209 -3.88749,-0.65245 -7.15436,4.5347 -2.58105,4.0982 -3.56183,7.16329 -4.0975,12.79331 -0.67359,7.07875 -0.59686,7.43348 1.78124,8.09688 1.36788,0.38188 4.05934,0.69961 5.97947,0.70806 3.99422,0.017 4.28235,-1.09434 1.85469,-7.14624 -1.29157,-3.22038 -1.348,-4.18646 -0.26878,-4.59371 8.6419,-3.25814 11.89111,-3.90733 19.49515,-3.90311 14.90036,0.009 19.8518,2.86147 23.64498,13.61065 1.01386,2.87322 3.0266,6.03017 4.47304,7.0173 3.73334,2.54801 3.28739,5.28764 -1.96584,12.05027 -2.5284,3.25476 -5.71768,7.57493 -7.0872,9.60045 -2.05577,3.04062 -2.76591,3.44554 -4.0744,2.31432 -2.8649,-2.47662 -5.6155,-9.27685 -4.5528,-11.25479 2.32793,-4.33282 -3.09452,-7.97623 -8.23694,-5.5356 -5.06127,2.40212 -9.34862,13.59099 -5.20735,13.59099 0.93168,0 3.14625,1.51144 4.91994,3.35892 3.77709,3.93436 3.61383,6.06722 -1.33647,17.55964 -3.10927,7.21851 -12.91646,19.36263 -15.63685,19.36263 -1.72817,0 -1.69423,-0.29223 -0.47835,4.12382 1.28313,4.66018 -0.77087,20.49244 -2.65823,20.49244 -2.05022,0 -6.95685,-6.58027 -9.69092,-12.99654 -1.34134,-3.14794 -3.099642,-5.98788 -3.908681,-6.3114 -0.809029,-0.32352 -3.381887,0.15394 -5.717229,1.05991 -2.335352,0.90602 -5.337877,1.91629 -6.671829,2.24657 -3.105201,0.76879 -8.623053,-1.59721 -10.007713,-4.29209 -0.589023,-1.14644 -1.919725,-2.0849 -2.958271,-2.0849 -2.642973,0 -20.444976,12.4467 -21.192502,14.81697 -0.965262,3.06061 0.5373,4.48743 3.948544,3.75234 1.702435,-0.36665 4.563551,-0.97833 6.359245,-1.35932 3.610387,-0.76625 7.477447,1.86862 7.477447,5.09416 0,2.87005 -3.016573,6.60116 -5.650046,6.99108 -3.222089,0.47682 -2.653975,3.41639 1.78124,9.23765 1.904663,2.49985 4.330752,5.99558 5.392033,7.76689 1.861547,3.10696 2.162839,3.1994 8.528579,2.6356 3.629266,-0.32141 9.015332,-1.68877 11.96942,-3.0377 5.899371,-2.69398 14.909913,-4.07501 19.220323,-2.94811 1.54405,0.40345 3.49005,2.18998 4.41431,4.05171 2.30096,4.63482 8.05141,7.34941 23.91992,11.29414 27.22727,6.76842 30.37571,10.54736 22.50367,27.01364 -2.13563,4.46649 -5.89429,12.90432 -8.35233,18.75069 -5.88122,13.988 -8.59208,18.66611 -13.93941,24.05681 -6.59449,6.64871 -7.48374,9.10947 -7.48374,20.68038 0,7.30957 0.62305,12.08711 2.21971,17.02425 l 2.21976,6.86214 -2.74634,9.04752 h 0.002 c -1.50999,4.97537 -3.83831,11.47347 -5.17381,14.44108 l -2.42742,5.39574 -3.75976,-2.59842 c -4.96533,-3.43167 -14.07546,-22.35143 -14.71994,-30.5715 -0.70307,-8.96691 -1.16587,-10.21962 -5.86827,-15.87907 -4.94008,-5.94488 -9.462826,-15.12526 -9.479062,-19.23581 -0.01222,-3.23911 -6.449585,-9.85939 -11.801543,-12.13988 -7.273595,-3.09922 -17.02825,-9.61847 -18.116734,-12.10711 -0.603558,-1.37916 -2.147328,-7.60872 -3.428256,-13.84006 -2.110911,-10.26978 -2.207254,-12.21783 -1.036434,-20.80933 0.808222,-5.93062 2.054518,-10.48854 3.329638,-12.17701 2.557998,-3.3895 2.565103,-5.63848 0.03248,-10.04848 -1.102288,-1.91887 -2.590153,-6.00111 -3.304468,-9.07157 -0.850283,-3.65483 -2.977069,-7.70633 -6.159898,-11.73335 -2.67391,-3.38325 -5.819387,-8.10915 -6.990736,-10.50086 -2.089555,-4.26625 -2.780606,-11.89625 -1.466509,-16.20906 0.3654,-1.19952 0.151844,-5.53208 -0.476277,-9.62664 -1.132372,-7.38353 -1.105333,-7.52913 3.201627,-17.63614 12.954172,-30.39929 35.649438,-60.32858 58.556802,-77.22092 6.6121,-4.87586 20.06975,-12.6885 22.24781,-13.00526 z m 217.21364,58.444 c 0.65836,-0.36962 2.79104,3.89009 6.36131,12.7212 9.22535,22.82038 15.471,45.26375 16.47183,59.19796 0.35931,5.02074 0.34672,9.94794 -0.0163,10.94883 -0.61306,1.66415 -0.95,1.6707 -3.92966,0.0655 -2.48561,-1.33878 -5.92223,-1.67989 -14.4934,-1.43799 l -11.2372,0.31675 7.76071,9.67691 c 8.16343,10.1762 14.59307,15.49881 18.71888,15.49881 2.92505,0 2.94365,0.24993 0.85393,12.73211 -5.82479,34.79166 -24.04509,69.02212 -52.33186,98.32095 -5.79263,5.99913 -11.01426,10.90946 -11.60439,10.90946 -0.59011,0 -2.13384,-2.2752 -3.43032,-5.0548 l -2.35821,-5.05263 1.90503,-11.45149 c 2.64132,-15.87823 3.5622,-37.69867 1.77917,-42.18246 -2.91288,-7.32508 -9.47447,-9.6169 -17.98665,-6.28302 -12.38147,4.84901 -27.31529,8.55784 -36.8125,9.14152 -9.08082,0.55807 -10.5913,0.37301 -13.70661,-1.68276 -9.56672,-6.31278 -13.74733,-25.48735 -12.04705,-55.24024 0.91529,-16.01576 3.26667,-24.91205 8.15932,-30.86651 9.03275,-10.99192 24.37241,-7.37901 45.79848,10.78711 10.00849,8.48548 16.46303,11.70497 23.46472,11.70497 9.5126,0 15.75431,-6.36658 19.23916,-19.62703 l 1.754,-6.672 12.25264,-4.60681 12.25058,-4.60462 1.23367,-5.78256 c 1.00054,-4.69304 0.91406,-7.37012 -0.4553,-14.19631 l -1.68684,-8.41161 -18.12091,-7.79966 c -14.52296,-6.2497 -18.24361,-7.47056 -18.72939,-6.15188 -1.12746,3.06023 0.80124,14.21793 3.5667,20.63666 l 2.74845,6.38135 -2.1442,5.05262 c -3.55306,8.36648 -4.81105,8.45805 -18.41676,1.35058 -14.1561,-7.39529 -19.10413,-7.97145 -27.54542,-3.20816 -6.48977,3.6621 -19.63078,4.78558 -27.2831,2.33402 -4.15897,-1.33242 -4.79286,-1.92816 -4.5318,-4.26591 0.56239,-5.03567 5.48477,-10.97001 13.5283,-16.31178 l 7.93484,-5.26896 -0.14047,-10.74778 c -0.16728,-12.7824 1.49188,-16.82315 6.90893,-16.82315 1.78233,0 5.2099,-1.04786 7.61799,-2.32747 5.4808,-2.91248 7.47795,-2.37632 14.87313,3.99491 3.24946,2.79926 7.72089,5.60359 9.93642,6.23054 5.72033,1.61865 12.22573,-0.43296 17.1831,-5.41759 5.90977,-5.94229 10.34246,-5.68669 16.24317,0.93317 4.28495,4.80722 4.74468,5.01985 13.30797,6.15188 l 8.87059,1.17138 -0.5434,-3.68895 c -0.29963,-2.02945 -0.8189,-5.50222 -1.15182,-7.71661 -0.31383,-2.08553 -0.30206,-3.21073 -0.0203,-3.37863 z"
       sodipodi:nodetypes="sscccccsccccsssscsssssscscsssccccccsscccccccsscccccscsssssssssssscsssssscscssscssscscsccccccssccsccsccsscsscsccccccccccsscsccsscscsccsccccccccsccccssscccsccssscccccc" /><path
       id="rect689"
       style="fill:#00ff00;fill-opacity:1;stroke-width:1.57268"
       d="m 262.70509,196.1716 c -33.58261,-2.1e-4 -59.59705,26.78524 -59.59542,59.83052 5.3e-4,33.04378 26.01434,59.83463 59.59542,59.83433 H 384.31094 512 V 196.1716 H 384.31094 Z m -0.20341,14.32158 H 384.3105 v 91.02169 l -121.50639,-0.29053 c -30.37733,8.5e-4 -43.49759,-20.08405 -43.49805,-45.21853 -0.002,-25.13602 12.81654,-45.51352 43.19562,-45.51275 z" /><g
       aria-label="G"
       transform="matrix(2.0370424,0,0,1.9558955,425.49594,-1002.3052)"
       id="text1030"
       style="font-size:74.6667px;font-family:'DIN Alternate';-inkscape-font-specification:'DIN Alternate';white-space:pre;shape-inside:url(#rect1032);fill:#00ff00"><path
         d="m -136.05663,649.5465 h 10.82813 v 2.77083 q -0.0729,4.9948 -3.13542,8.0573 -3.0625,3.20833 -7.76563,3.20833 -2.84375,0 -4.88542,-1.20312 -2.07812,-1.02084 -3.35416,-2.66146 -1.56771,-1.71355 -2.07813,-4.48438 -0.58333,-2.77084 -0.58333,-10.60938 0,-7.83855 0.58333,-10.6823 0.51042,-2.69792 2.07813,-4.41146 1.27604,-1.64062 3.35416,-2.73437 2.04167,-1.0573 4.88542,-1.13021 3.86459,0.0729 6.56251,2.22396 2.58854,2.26041 3.57292,5.46875 h 8.53125 q -1.27604,-6.67188 -6.125,-11.19271 -4.84896,-4.48438 -12.54168,-4.5573 -6.27083,0.0729 -10.46354,2.98959 -4.26563,2.88021 -6.19792,6.5625 -1.20313,1.93229 -1.78646,5.06771 -0.54688,3.13542 -0.54688,12.39584 0,9.11459 0.54688,12.32292 0.29166,1.71354 0.72917,2.84375 0.47395,1.09375 1.05729,2.29688 1.93229,3.68229 6.19792,6.48959 4.19271,2.91666 10.46354,3.0625 8.13022,-0.14584 13.48959,-5.50521 5.32292,-5.39584 5.46876,-13.38022 V 641.9267 h -18.88543 z"
         id="path1245" /></g></g></svg>
